<svg version="1.1" id="Layer_1" xmlns="http://www.w3.org/2000/svg" xmlns:xlink="http://www.w3.org/1999/xlink" x="0px" y="0px"
	 width="100%" viewBox="0 0 65 64" enable-background="new 0 0 65 64" xml:space="preserve">
<path fill="none" opacity="1.000000" stroke="#000000" stroke-linecap="round" stroke-linejoin="round" stroke-width="3.000000"
	d="
M41.000000,24.500000 
	C33.520855,23.394932 25.994944,24.344938 18.501204,23.975599 
	C16.223711,23.863348 15.530742,25.148613 15.520370,27.000114 
	C15.473673,35.336517 15.500000,43.673332 15.500000,52.250000 
	C26.500000,52.250000 37.000000,52.250000 47.750000,52.250000 
	C47.750000,42.833332 47.750000,33.666668 47.750000,24.390718 
	C45.666668,23.770723 43.833332,23.805771 42.000000,24.500000 
"/>
<path fill="none" opacity="1.000000" stroke="#000000" stroke-linecap="round" stroke-linejoin="round" stroke-width="3.000000"
	d="
M41.500000,28.500000 
	C41.500000,27.000000 41.513302,25.499861 41.497608,24.000025 
	C41.441101,18.600143 40.185024,16.825966 35.500000,15.499999 
	C30.661493,14.130592 25.346413,15.484164 23.577545,19.038591 
	C22.119589,21.968262 23.277376,25.339161 23.000000,28.500000 
"/>
<path fill="none" opacity="1.000000" stroke="#000000" stroke-linecap="round" stroke-linejoin="round" stroke-width="3.000000"
	d="
M32.000000,30.500000 
	C30.478518,31.311852 28.581978,31.818726 28.518461,34.000538 
	C28.440893,36.664948 28.127811,39.410072 28.655214,41.967999 
	C28.923531,43.269337 30.846136,44.942974 32.441658,44.344467 
	C33.652122,43.890400 35.341667,43.160744 35.578804,41.008682 
	C36.021870,36.987835 36.817894,33.052029 32.500000,30.500000 
"/>
</svg>