<svg version="1.1" id="Layer_1" xmlns="http://www.w3.org/2000/svg" xmlns:xlink="http://www.w3.org/1999/xlink" x="0px" y="0px"
	 width="100%" viewBox="0 0 111 95" enable-background="new 0 0 111 95" xml:space="preserve">
<path fill="#FFFFFF" opacity="1.000000" stroke="none" 
	d="
M66.000000,96.000000 
	C44.000000,96.000000 22.500000,96.000000 1.000000,96.000000 
	C1.000000,64.333336 1.000000,32.666668 1.000000,1.000000 
	C38.000000,1.000000 75.000000,1.000000 112.000000,1.000000 
	C112.000000,32.666668 112.000000,64.333336 112.000000,96.000000 
	C96.833336,96.000000 81.666664,96.000000 66.000000,96.000000 
M67.489761,38.989769 
	C63.075211,43.441875 58.660660,47.893982 53.664810,52.932339 
	C43.442013,42.679893 33.632374,32.841805 24.444057,23.626841 
	C21.324652,26.583055 18.246264,29.500399 15.916903,31.707897 
	C28.733118,44.540367 41.719452,57.543171 54.013531,69.852844 
	C66.583328,57.233654 79.553474,44.212536 91.723091,31.995102 
	C89.410210,29.216038 86.690178,25.947758 83.794487,22.468414 
	C78.263756,28.074970 73.126770,33.282379 67.489761,38.989769 
z"/>
<path fill="#20201E" opacity="1.000000" stroke="none" 
	d="
M67.739769,38.739777 
	C73.126770,33.282379 78.263756,28.074970 83.794487,22.468414 
	C86.690178,25.947758 89.410210,29.216038 91.723091,31.995102 
	C79.553474,44.212536 66.583328,57.233654 54.013531,69.852844 
	C41.719452,57.543171 28.733118,44.540367 15.916903,31.707897 
	C18.246264,29.500399 21.324652,26.583055 24.444057,23.626841 
	C33.632374,32.841805 43.442013,42.679893 53.664810,52.932339 
	C58.660660,47.893982 63.075211,43.441875 67.739769,38.739777 
z"/>
</svg>